<svg width="103" height="51" viewBox="0 0 103 51" fill="none" xmlns="http://www.w3.org/2000/svg">
    <path
        d="M74.3415 17.993C74.3415 16.1862 75.7887 14.7216 77.5738 14.7216C79.3589 14.7216 80.806 16.1862 80.806 17.993C80.806 19.7998 79.3589 21.2645 77.5738 21.2645C75.7887 21.2645 74.3415 19.7998 74.3415 17.993Z"
        fill="#44AB4F" />
    <path
        d="M67.3384 25.0812C67.3384 23.2744 68.7855 21.8097 70.5706 21.8097C72.3557 21.8097 73.8028 23.2744 73.8028 25.0812C73.8028 26.888 72.3557 28.3526 70.5706 28.3526C68.7855 28.3526 67.3384 26.888 67.3384 25.0812Z"
        fill="#44AB4F" />
    <path
        d="M84.577 21.8097C82.7919 21.8097 81.3447 23.2744 81.3447 25.0812C81.3447 26.888 82.7919 28.3526 84.577 28.3526C86.3621 28.3526 87.8092 26.888 87.8092 25.0812C87.8092 23.2744 86.3621 21.8097 84.577 21.8097Z"
        fill="#44AB4F" />
    <path
        d="M74.3415 32.1693C74.3415 30.3626 75.7887 28.8979 77.5738 28.8979C79.3589 28.8979 80.806 30.3626 80.806 32.1693C80.806 33.9761 79.3589 35.4408 77.5738 35.4408C75.7887 35.4408 74.3415 33.9761 74.3415 32.1693Z"
        fill="#44AB4F" />
    <path fill-rule="evenodd" clip-rule="evenodd"
        d="M55.4269 37.5751L55.4358 37.5872L55.4443 37.5997C60.4774 44.9501 66.8695 50.7076 77.3044 50.7076C91.1167 50.7076 102.354 39.3337 102.354 25.3538C102.354 11.3928 91.0981 0 77.3044 0C69.6291 0 63.6861 3.3237 59.3025 7.92784C55.0182 12.4313 52.0051 18.0277 49.039 23.5503L48.742 24.1031L48.7417 24.1036C45.7056 29.7455 42.6403 35.2509 39.0083 39.0912C37.1937 41.0137 35.2782 42.586 33.0082 43.6716C30.7321 44.7602 28.1549 45.3331 25.0499 45.3331C14.1047 45.3331 5.3101 36.4318 5.3101 25.3538C5.3101 14.3325 14.1607 5.37454 25.0499 5.37454C33.8857 5.37454 39.1379 10.4392 43.5342 17.2044C44.4593 15.5516 45.4469 13.8724 46.497 12.1729C41.5191 5.27928 35.1538 0 25.0499 0C11.2376 0 0 11.3739 0 25.3538C0 39.3148 11.2562 50.7076 25.0499 50.7076C32.6535 50.7076 38.5951 47.3844 42.9327 42.7796C45.8596 39.6748 48.1842 36.0343 50.3199 32.2457L51.3092 30.4908L52.2156 32.2909C52.9035 33.6568 54.2397 35.94 55.4269 37.5751ZM57.711 31.4522L57.7204 31.468C62.3451 39.2007 67.7572 45.3331 77.3044 45.3331C88.1936 45.3331 97.0442 36.3751 97.0442 25.3538C97.0442 14.2758 88.2496 5.37454 77.3044 5.37454C70.9286 5.37454 66.8235 7.71613 63.114 11.613C60.0915 14.7852 57.2931 19.7877 54.8227 24.278L54.6314 24.6257L54.7064 25.0164C54.8703 25.8711 55.4345 27.1135 55.9954 28.237C56.5794 29.4068 57.2445 30.6093 57.7021 31.4362L57.711 31.4522Z"
        fill="#44AB4F" />
    <path
        d="M22.6257 16.3573H26.9353V22.9002H33.3998V27.2621H26.9353V33.8051H22.6257V27.2621H16.1612V22.9002H22.6257V16.3573Z"
        fill="#44AB4F" />
</svg>
